<?xml version="1.0" encoding="UTF-8"?>
<svg enable-background="new 0 0 100 100" version="1.1" viewBox="0 0 100 100" xml:space="preserve" xmlns="http://www.w3.org/2000/svg">
	<path d="m95 39.216-1.87-0.607-8.932 27.492h-3.032l9.656-29.717-1.87-0.607-9.854 30.324h-3.031l10.576-32.55-1.87-0.607-10.774 33.157h-3.032l11.497-35.383-1.87-0.607-11.694 35.99h-3.032l12.417-38.216-1.87-0.607-12.616 38.823h-3.031l13.337-41.048-0.033-0.011 0.112-0.154-24.561-17.846-1.156 1.59 23.386 16.991-0.937 2.884-25.279-18.365-1.156 1.59 25.795 18.742-0.937 2.883-27.687-20.116-1.156 1.59 28.205 20.492-0.937 2.885-30.098-21.869-1.156 1.59 30.615 22.244-0.937 2.884-32.508-23.618-1.156 1.59 33.025 23.994-0.937 2.884-34.916-25.369-0.021 0.029-0.113-0.156-24.562 17.845 1.156 1.59 23.385-16.991 2.453 1.782-25.278 18.367 1.156 1.59 25.795-18.741 2.454 1.783-27.689 20.116 1.156 1.59 28.205-20.492 2.453 1.782-30.099 21.868 1.156 1.59 30.615-22.242 2.453 1.782-32.508 23.619 1.156 1.59 33.024-23.994 2.454 1.783-34.918 25.369 0.02 0.028-0.181 0.059 9.382 28.874 1.87-0.607-8.933-27.492 2.453-1.782 9.656 29.716 1.87-0.607-9.854-30.324 2.453-1.783 10.575 32.549 1.87-0.607-10.771-33.157 2.453-1.782 11.495 35.381 1.87-0.607-11.693-35.99 2.453-1.782 12.417 38.214 1.87-0.607-12.615-38.822 2.453-1.782 13.337 41.047 0.034-0.011v0.192h30.361v-1.966h-28.908l-0.937-2.883h31.245v-1.966h-31.883l-0.937-2.883h34.224v-1.967h-34.863l-0.937-2.883h37.202v-1.967h-37.841l-0.937-2.883h40.181v-1.967h-40.82l-0.937-2.883h43.159v-0.036l0.182 0.059 9.383-28.874zm-58.635 10.656 13.805-10.029 13.804 10.029-5.273 16.228h-17.063l-5.273-16.228z" fill="#f4a261"/>
</svg>
