<svg xmlns="http://www.w3.org/2000/svg">
  <symbol
    id="page-prev"
    viewBox="0 0 24 24"
    stroke-width="1.5"
    stroke="currentColor"
    fill="none"
  >
    <path
      stroke-linecap="round"
      stroke-linejoin="round"
      d="M15.75 19.5 8.25 12l7.5-7.5"
    />
  </symbol>

  <symbol
    id="page-next"
    viewBox="0 0 24 24"
    stroke-width="1.5"
    stroke="currentColor"
    fill="none"
  >
    <path
      stroke-linecap="round"
      stroke-linejoin="round"
      d="m8.25 4.5 7.5 7.5-7.5 7.5"
    />
  </symbol>

  <symbol
    id="page-first"
    viewBox="0 0 24 24"
    stroke-width="1.5"
    stroke="currentColor"
    fill="none"
  >
    <path
      stroke-linecap="round"
      stroke-linejoin="round"
      d="m18.75 4.5-7.5 7.5 7.5 7.5m-6-15L5.25 12l7.5 7.5"
    />
  </symbol>

  <symbol
    id="page-last"
    viewBox="0 0 24 24"
    stroke-width="1.5"
    stroke="currentColor"
    fill="none"
  >
    <path
      stroke-linecap="round"
      stroke-linejoin="round"
      d="m5.25 4.5 7.5 7.5-7.5 7.5m6-15 7.5 7.5-7.5 7.5"
    />
  </symbol>

  <symbol
    id="filter"
    viewBox="0 0 24 24"
    stroke-width="1.5"
    stroke="currentColor"
    fill="none"
  >
    <path
      stroke-linecap="round"
      stroke-linejoin="round"
      d="M12 3c2.755 0 5.455.232 8.083.678.533.09.917.556.917 1.096v1.044a2.25 2.25 0 0 1-.659 1.591l-5.432 5.432a2.25 2.25 0 0 0-.659 1.591v2.927a2.25 2.25 0 0 1-1.244 2.013L9.75 21v-6.568a2.25 2.25 0 0 0-.659-1.591L3.659 7.409A2.25 2.25 0 0 1 3 5.818V4.774c0-.54.384-1.006.917-1.096A48.32 48.32 0 0 1 12 3Z"
    />
  </symbol>

  <symbol
    id="sort"
    viewBox="0 0 24 24"
    stroke-width="1.5"
    stroke="currentColor"
    fill="none"
  >
    <path
      stroke-linecap="round"
      stroke-linejoin="round"
      d="M6 13.5V3.75m0 9.75a1.5 1.5 0 0 1 0 3m0-3a1.5 1.5 0 0 0 0 3m0 3.75V16.5m12-3V3.75m0 9.75a1.5 1.5 0 0 1 0 3m0-3a1.5 1.5 0 0 0 0 3m0 3.75V16.5m-6-9V3.75m0 3.75a1.5 1.5 0 0 1 0 3m0-3a1.5 1.5 0 0 0 0 3m0 9.75V10.5"
    />
  </symbol>

  <symbol
    id="logout"
    viewBox="0 0 24 24"
    stroke-width="1.5"
    stroke="currentColor"
    fill="none"
  >
    <path
      stroke-linecap="round"
      stroke-linejoin="round"
      d="M15.75 9V5.25A2.25 2.25 0 0 0 13.5 3h-6a2.25 2.25 0 0 0-2.25 2.25v13.5A2.25 2.25 0 0 0 7.5 21h6a2.25 2.25 0 0 0 2.25-2.25V15m3 0 3-3m0 0-3-3m3 3H9"
    />
  </symbol>

  <symbol
    id="login"
    viewBox="0 0 24 24"
    stroke-width="1.5"
    stroke="currentColor"
    fill="none"
  >
    <path
      stroke-linecap="round"
      stroke-linejoin="round"
      d="M15.75 9V5.25A2.25 2.25 0 0 0 13.5 3h-6a2.25 2.25 0 0 0-2.25 2.25v13.5A2.25 2.25 0 0 0 7.5 21h6a2.25 2.25 0 0 0 2.25-2.25V15M12 9l-3 3m0 0 3 3m-3-3h12.75"
    />
  </symbol>

  <symbol
    id="signup"
    viewBox="0 0 24 24"
    stroke-width="1.5"
    stroke="currentColor"
    fill="none"
  >
    <path
      stroke-linecap="round"
      stroke-linejoin="round"
      d="M18 7.5v3m0 0v3m0-3h3m-3 0h-3m-2.25-4.125a3.375 3.375 0 1 1-6.75 0 3.375 3.375 0 0 1 6.75 0ZM3 19.235v-.11a6.375 6.375 0 0 1 12.75 0v.109A12.318 12.318 0 0 1 9.374 21c-2.331 0-4.512-.645-6.374-1.766Z"
    />
  </symbol>

  <symbol
    id="menu"
    viewBox="0 0 24 24"
    stroke-width="1.5"
    stroke="currentColor"
    fill="none"
  >
    <path
      stroke-linecap="round"
      stroke-linejoin="round"
      d="M3.75 6.75h16.5M3.75 12h16.5m-16.5 5.25h16.5"
    />
  </symbol>

  <symbol
    id="upload"
    viewBox="0 0 24 24"
    stroke-width="1.5"
    stroke="currentColor"
    fill="none"
  >
    <path
      stroke-linecap="round"
      stroke-linejoin="round"
      d="M3 16.5v2.25A2.25 2.25 0 0 0 5.25 21h13.5A2.25 2.25 0 0 0 21 18.75V16.5m-13.5-9L12 3m0 0 4.5 4.5M12 3v13.5"
    />
  </symbol>

  <symbol
    id="check-badge"
    viewBox="0 0 24 24"
    stroke-width="1.5"
    stroke="currentColor"
    fill="none"
  >
    <path
      stroke-linecap="round"
      stroke-linejoin="round"
      d="M9 12.75 11.25 15 15 9.75M21 12c0 1.268-.63 2.39-1.593 3.068a3.745 3.745 0 0 1-1.043 3.296 3.745 3.745 0 0 1-3.296 1.043A3.745 3.745 0 0 1 12 21c-1.268 0-2.39-.63-3.068-1.593a3.746 3.746 0 0 1-3.296-1.043 3.745 3.745 0 0 1-1.043-3.296A3.745 3.745 0 0 1 3 12c0-1.268.63-2.39 1.593-3.068a3.745 3.745 0 0 1 1.043-3.296 3.746 3.746 0 0 1 3.296-1.043A3.746 3.746 0 0 1 12 3c1.268 0 2.39.63 3.068 1.593a3.746 3.746 0 0 1 3.296 1.043 3.746 3.746 0 0 1 1.043 3.296A3.745 3.745 0 0 1 21 12Z"
    />
  </symbol>

  <symbol
    id="actions-horizontal"
    viewBox="0 0 24 24"
    stroke-width="1.5"
    stroke="currentColor"
    fill="none"
  >
    <path
      stroke-linecap="round"
      stroke-linejoin="round"
      d="M6.75 12a.75.75 0 1 1-1.5 0 .75.75 0 0 1 1.5 0ZM12.75 12a.75.75 0 1 1-1.5 0 .75.75 0 0 1 1.5 0ZM18.75 12a.75.75 0 1 1-1.5 0 .75.75 0 0 1 1.5 0Z"
    />
  </symbol>

  <symbol
    id="actions-vertical"
    viewBox="0 0 24 24"
    stroke-width="1.5"
    stroke="currentColor"
    fill="none"
  >
    <path
      stroke-linecap="round"
      stroke-linejoin="round"
      d="M12 6.75a.75.75 0 1 1 0-1.5.75.75 0 0 1 0 1.5ZM12 12.75a.75.75 0 1 1 0-1.5.75.75 0 0 1 0 1.5ZM12 18.75a.75.75 0 1 1 0-1.5.75.75 0 0 1 0 1.5Z"
    />
  </symbol>

  <symbol
    id="info-circle"
    viewBox="0 0 24 24"
    stroke-width="1.5"
    stroke="currentColor"
    fill="none"
  >
    <path
      stroke-linecap="round"
      stroke-linejoin="round"
      d="m11.25 11.25.041-.02a.75.75 0 0 1 1.063.852l-.708 2.836a.75.75 0 0 0 1.063.853l.041-.021M21 12a9 9 0 1 1-18 0 9 9 0 0 1 18 0Zm-9-3.75h.008v.008H12V8.25Z"
    />
  </symbol>

  <symbol
    id="warning-triangle"
    viewBox="0 0 24 24"
    stroke-width="1.5"
    stroke="currentColor"
    fill="none"
  >
    <path
      stroke-linecap="round"
      stroke-linejoin="round"
      d="M12 9v3.75m-9.303 3.376c-.866 1.5.217 3.374 1.948 3.374h14.71c1.73 0 2.813-1.874 1.948-3.374L13.949 3.378c-.866-1.5-3.032-1.5-3.898 0L2.697 16.126ZM12 15.75h.007v.008H12v-.008Z"
    />
  </symbol>

  <symbol
    id="duplicate"
    viewBox="0 0 24 24"
    stroke-width="1.5"
    stroke="currentColor"
    fill="none"
  >
    <path
      stroke-linecap="round"
      stroke-linejoin="round"
      d="M16.5 8.25V6a2.25 2.25 0 0 0-2.25-2.25H6A2.25 2.25 0 0 0 3.75 6v8.25A2.25 2.25 0 0 0 6 16.5h2.25m8.25-8.25H18a2.25 2.25 0 0 1 2.25 2.25V18A2.25 2.25 0 0 1 18 20.25h-7.5A2.25 2.25 0 0 1 8.25 18v-1.5m8.25-8.25h-6a2.25 2.25 0 0 0-2.25 2.25v6"
    />
  </symbol>

  <symbol
    id="create"
    viewBox="0 0 24 24"
    stroke-width="1.5"
    stroke="currentColor"
    fill="none"
  >
    <path
      stroke-linecap="round"
      stroke-linejoin="round"
      d="M12 4.5v15m7.5-7.5h-15"
    />
  </symbol>

  <symbol
    id="delete"
    viewBox="0 0 24 24"
    stroke-width="1.5"
    stroke="currentColor"
    fill="none"
  >
    <path
      stroke-linecap="round"
      stroke-linejoin="round"
      d="m14.74 9-.346 9m-4.788 0L9.26 9m9.968-3.21c.342.052.682.107 1.022.166m-1.022-.165L18.16 19.673a2.25 2.25 0 0 1-2.244 2.077H8.084a2.25 2.25 0 0 1-2.244-2.077L4.772 5.79m14.456 0a48.108 48.108 0 0 0-3.478-.397m-12 .562c.34-.059.68-.114 1.022-.165m0 0a48.11 48.11 0 0 1 3.478-.397m7.5 0v-.916c0-1.18-.91-2.164-2.09-2.201a51.964 51.964 0 0 0-3.32 0c-1.18.037-2.09 1.022-2.09 2.201v.916m7.5 0a48.667 48.667 0 0 0-7.5 0"
    />
  </symbol>

  <symbol
    id="edit"
    viewBox="0 0 24 24"
    stroke-width="1.5"
    stroke="currentColor"
    fill="none"
  >
    <path
      stroke-linecap="round"
      stroke-linejoin="round"
      d="m16.862 4.487 1.687-1.688a1.875 1.875 0 1 1 2.652 2.652L6.832 19.82a4.5 4.5 0 0 1-1.897 1.13l-2.685.8.8-2.685a4.5 4.5 0 0 1 1.13-1.897L16.863 4.487Zm0 0L19.5 7.125"
    />
  </symbol>

  <symbol
    id="close"
    viewBox="0 0 24 24"
    stroke-width="1.5"
    stroke="currentColor"
    fill="none"
  >
    <path
      stroke-linecap="round"
      stroke-linejoin="round"
      d="M6 18 18 6M6 6l12 12"
    />
  </symbol>

  <symbol
    id="profile"
    viewBox="0 0 24 24"
    stroke-width="1.5"
    stroke="currentColor"
    fill="none"
  >
    <path
      stroke-linecap="round"
      stroke-linejoin="round"
      d="M15.75 6a3.75 3.75 0 1 1-7.5 0 3.75 3.75 0 0 1 7.5 0ZM4.501 20.118a7.5 7.5 0 0 1 14.998 0A17.933 17.933 0 0 1 12 21.75c-2.676 0-5.216-.584-7.499-1.632Z"
    />
  </symbol>

  <symbol
    id="search"
    viewBox="0 0 24 24"
    stroke-width="1.5"
    stroke="currentColor"
    fill="none"
  >
    <path
      stroke-linecap="round"
      stroke-linejoin="round"
      d="m21 21-5.197-5.197m0 0A7.5 7.5 0 1 0 5.196 5.196a7.5 7.5 0 0 0 10.607 10.607Z"
    />
  </symbol>

  <symbol
    id="envelope-closed"
    viewBox="0 0 24 24"
    stroke-width="1.5"
    stroke="currentColor"
    fill="none"
  >
    <path
      stroke-linecap="round"
      stroke-linejoin="round"
      d="M21.75 6.75v10.5a2.25 2.25 0 0 1-2.25 2.25h-15a2.25 2.25 0 0 1-2.25-2.25V6.75m19.5 0A2.25 2.25 0 0 0 19.5 4.5h-15a2.25 2.25 0 0 0-2.25 2.25m19.5 0v.243a2.25 2.25 0 0 1-1.07 1.916l-7.5 4.615a2.25 2.25 0 0 1-2.36 0L3.32 8.91a2.25 2.25 0 0 1-1.07-1.916V6.75"
    />
  </symbol>

  <symbol
    id="envelope-open"
    viewBox="0 0 24 24"
    stroke-width="1.5"
    stroke="currentColor"
    fill="none"
  >
    <path
      stroke-linecap="round"
      stroke-linejoin="round"
      d="M21.75 9v.906a2.25 2.25 0 0 1-1.183 1.981l-6.478 3.488M2.25 9v.906a2.25 2.25 0 0 0 1.183 1.981l6.478 3.488m8.839 2.51-4.66-2.51m0 0-1.023-.55a2.25 2.25 0 0 0-2.134 0l-1.022.55m0 0-4.661 2.51m16.5 1.615a2.25 2.25 0 0 1-2.25 2.25h-15a2.25 2.25 0 0 1-2.25-2.25V8.844a2.25 2.25 0 0 1 1.183-1.981l7.5-4.039a2.25 2.25 0 0 1 2.134 0l7.5 4.039a2.25 2.25 0 0 1 1.183 1.98V19.5Z"
    />
  </symbol>

  <symbol
    id="setting"
    viewBox="0 0 24 24"
    stroke-width="1.5"
    stroke="currentColor"
    fill="none"
  >
    <path
      stroke-linecap="round"
      stroke-linejoin="round"
      d="M10.343 3.94c.09-.542.56-.94 1.11-.94h1.093c.55 0 1.02.398 1.11.94l.149.894c.07.424.384.764.78.93.398.164.855.142 1.205-.108l.737-.527a1.125 1.125 0 0 1 1.45.12l.773.774c.39.389.44 1.002.12 1.45l-.527.737c-.25.35-.272.806-.107 1.204.165.397.505.71.93.78l.893.15c.543.09.94.559.94 1.109v1.094c0 .55-.397 1.02-.94 1.11l-.894.149c-.424.07-.764.383-.929.78-.165.398-.143.854.107 1.204l.527.738c.32.447.269 1.06-.12 1.45l-.774.773a1.125 1.125 0 0 1-1.449.12l-.738-.527c-.35-.25-.806-.272-1.203-.107-.398.165-.71.505-.781.929l-.149.894c-.09.542-.56.94-1.11.94h-1.094c-.55 0-1.019-.398-1.11-.94l-.148-.894c-.071-.424-.384-.764-.781-.93-.398-.164-.854-.142-1.204.108l-.738.527c-.447.32-1.06.269-1.45-.12l-.773-.774a1.125 1.125 0 0 1-.12-1.45l.527-.737c.25-.35.272-.806.108-1.204-.165-.397-.506-.71-.93-.78l-.894-.15c-.542-.09-.94-.56-.94-1.109v-1.094c0-.55.398-1.02.94-1.11l.894-.149c.424-.07.765-.383.93-.78.165-.398.143-.854-.108-1.204l-.526-.738a1.125 1.125 0 0 1 .12-1.45l.773-.773a1.125 1.125 0 0 1 1.45-.12l.737.527c.35.25.807.272 1.204.107.397-.165.71-.505.78-.929l.15-.894Z"
    />
    <path
      stroke-linecap="round"
      stroke-linejoin="round"
      d="M15 12a3 3 0 1 1-6 0 3 3 0 0 1 6 0Z"
    />
  </symbol>

  <symbol
    id="calendar"
    viewBox="0 0 24 24"
    stroke-width="1.5"
    stroke="currentColor"
    fill="none"
  >
    <path
      stroke-linecap="round"
      stroke-linejoin="round"
      d="M6.75 3v2.25M17.25 3v2.25M3 18.75V7.5a2.25 2.25 0 0 1 2.25-2.25h13.5A2.25 2.25 0 0 1 21 7.5v11.25m-18 0A2.25 2.25 0 0 0 5.25 21h13.5A2.25 2.25 0 0 0 21 18.75m-18 0v-7.5A2.25 2.25 0 0 1 5.25 9h13.5A2.25 2.25 0 0 1 21 11.25v7.5"
    />
  </symbol>

  <symbol
    id="calendar-range"
    viewBox="0 0 24 24"
    stroke-width="1.5"
    stroke="currentColor"
    fill="none"
  >
    <path
      stroke-linecap="round"
      stroke-linejoin="round"
      d="M6.75 2.994v2.25m10.5-2.25v2.25m-14.252 13.5V7.491a2.25 2.25 0 0 1 2.25-2.25h13.5a2.25 2.25 0 0 1 2.25 2.25v11.251m-18 0a2.25 2.25 0 0 0 2.25 2.25h13.5a2.25 2.25 0 0 0 2.25-2.25m-18 0v-7.5a2.25 2.25 0 0 1 2.25-2.25h13.5a2.25 2.25 0 0 1 2.25 2.25v7.5m-6.75-6h2.25m-9 2.25h4.5m.002-2.25h.005v.006H12v-.006Zm-.001 4.5h.006v.006h-.006v-.005Zm-2.25.001h.005v.006H9.75v-.006Zm-2.25 0h.005v.005h-.006v-.005Zm6.75-2.247h.005v.005h-.005v-.005Zm0 2.247h.006v.006h-.006v-.006Zm2.25-2.248h.006V15H16.5v-.005Z"
    />
  </symbol>

  <symbol
    id="calendar-days"
    viewBox="0 0 24 24"
    stroke-width="1.5"
    stroke="currentColor"
    fill="none"
  >
    <path
      stroke-linecap="round"
      stroke-linejoin="round"
      d="M6.75 3v2.25M17.25 3v2.25M3 18.75V7.5a2.25 2.25 0 0 1 2.25-2.25h13.5A2.25 2.25 0 0 1 21 7.5v11.25m-18 0A2.25 2.25 0 0 0 5.25 21h13.5A2.25 2.25 0 0 0 21 18.75m-18 0v-7.5A2.25 2.25 0 0 1 5.25 9h13.5A2.25 2.25 0 0 1 21 11.25v7.5m-9-6h.008v.008H12v-.008ZM12 15h.008v.008H12V15Zm0 2.25h.008v.008H12v-.008ZM9.75 15h.008v.008H9.75V15Zm0 2.25h.008v.008H9.75v-.008ZM7.5 15h.008v.008H7.5V15Zm0 2.25h.008v.008H7.5v-.008Zm6.75-4.5h.008v.008h-.008v-.008Zm0 2.25h.008v.008h-.008V15Zm0 2.25h.008v.008h-.008v-.008Zm2.25-4.5h.008v.008H16.5v-.008Zm0 2.25h.008v.008H16.5V15Z"
    />
  </symbol>

  <symbol
    id="bell"
    viewBox="0 0 24 24"
    stroke-width="1.5"
    stroke="currentColor"
    fill="none"
  >
    <path
      stroke-linecap="round"
      stroke-linejoin="round"
      d="M14.857 17.082a23.848 23.848 0 0 0 5.454-1.31A8.967 8.967 0 0 1 18 9.75V9A6 6 0 0 0 6 9v.75a8.967 8.967 0 0 1-2.312 6.022c1.733.64 3.56 1.085 5.455 1.31m5.714 0a24.255 24.255 0 0 1-5.714 0m5.714 0a3 3 0 1 1-5.714 0"
    />
  </symbol>

  <symbol
    id="bell-ring"
    viewBox="0 0 24 24"
    stroke-width="1.5"
    stroke="currentColor"
    fill="none"
  >
    <path
      stroke-linecap="round"
      stroke-linejoin="round"
      d="M14.857 17.082a23.848 23.848 0 0 0 5.454-1.31A8.967 8.967 0 0 1 18 9.75V9A6 6 0 0 0 6 9v.75a8.967 8.967 0 0 1-2.312 6.022c1.733.64 3.56 1.085 5.455 1.31m5.714 0a24.255 24.255 0 0 1-5.714 0m5.714 0a3 3 0 1 1-5.714 0M3.124 7.5A8.969 8.969 0 0 1 5.292 3m13.416 0a8.969 8.969 0 0 1 2.168 4.5"
    />
  </symbol>

  <symbol
    id="bell-snooze"
    viewBox="0 0 24 24"
    stroke-width="1.5"
    stroke="currentColor"
    fill="none"
  >
    <path
      stroke-linecap="round"
      stroke-linejoin="round"
      d="M14.857 17.082a23.848 23.848 0 0 0 5.454-1.31A8.967 8.967 0 0 1 18 9.75V9A6 6 0 0 0 6 9v.75a8.967 8.967 0 0 1-2.312 6.022c1.733.64 3.56 1.085 5.455 1.31m5.714 0a24.255 24.255 0 0 1-5.714 0m5.714 0a3 3 0 1 1-5.714 0M10.5 8.25h3l-3 4.5h3"
    />
  </symbol>

  <symbol
    id="eye-on"
    viewBox="0 0 24 24"
    stroke-width="1.5"
    stroke="currentColor"
    fill="none"
  >
    <path
      stroke-linecap="round"
      stroke-linejoin="round"
      d="M2.036 12.322a1.012 1.012 0 0 1 0-.639C3.423 7.51 7.36 4.5 12 4.5c4.638 0 8.573 3.007 9.963 7.178.07.207.07.431 0 .639C20.577 16.49 16.64 19.5 12 19.5c-4.638 0-8.573-3.007-9.963-7.178Z"
    />
    <path
      stroke-linecap="round"
      stroke-linejoin="round"
      d="M15 12a3 3 0 1 1-6 0 3 3 0 0 1 6 0Z"
    />
  </symbol>

  <symbol
    id="eye-off"
    viewBox="0 0 24 24"
    stroke-width="1.5"
    stroke="currentColor"
    fill="none"
  >
    <path
      stroke-linecap="round"
      stroke-linejoin="round"
      d="M3.98 8.223A10.477 10.477 0 0 0 1.934 12C3.226 16.338 7.244 19.5 12 19.5c.993 0 1.953-.138 2.863-.395M6.228 6.228A10.451 10.451 0 0 1 12 4.5c4.756 0 8.773 3.162 10.065 7.498a10.522 10.522 0 0 1-4.293 5.774M6.228 6.228 3 3m3.228 3.228 3.65 3.65m7.894 7.894L21 21m-3.228-3.228-3.65-3.65m0 0a3 3 0 1 0-4.243-4.243m4.242 4.242L9.88 9.88"
    />
  </symbol>

  <symbol
    id="cube"
    viewBox="0 0 24 24"
    stroke-width="1.5"
    stroke="currentColor"
    fill="none"
  >
    <path
      stroke-linecap="round"
      stroke-linejoin="round"
      d="m21 7.5-9-5.25L3 7.5m18 0-9 5.25m9-5.25v9l-9 5.25M3 7.5l9 5.25M3 7.5v9l9 5.25m0-9v9"
    />
  </symbol>

  <symbol
    id="trophy"
    viewBox="0 0 24 24"
    stroke-width="1.5"
    stroke="currentColor"
    fill="none"
  >
    <path
      stroke-linecap="round"
      stroke-linejoin="round"
      d="M16.5 18.75h-9m9 0a3 3 0 0 1 3 3h-15a3 3 0 0 1 3-3m9 0v-3.375c0-.621-.503-1.125-1.125-1.125h-.871M7.5 18.75v-3.375c0-.621.504-1.125 1.125-1.125h.872m5.007 0H9.497m5.007 0a7.454 7.454 0 0 1-.982-3.172M9.497 14.25a7.454 7.454 0 0 0 .981-3.172M5.25 4.236c-.982.143-1.954.317-2.916.52A6.003 6.003 0 0 0 7.73 9.728M5.25 4.236V4.5c0 2.108.966 3.99 2.48 5.228M5.25 4.236V2.721C7.456 2.41 9.71 2.25 12 2.25c2.291 0 4.545.16 6.75.47v1.516M7.73 9.728a6.726 6.726 0 0 0 2.748 1.35m8.272-6.842V4.5c0 2.108-.966 3.99-2.48 5.228m2.48-5.492a46.32 46.32 0 0 1 2.916.52 6.003 6.003 0 0 1-5.395 4.972m0 0a6.726 6.726 0 0 1-2.749 1.35m0 0a6.772 6.772 0 0 1-3.044 0"
    />
  </symbol>

  <symbol
    id="dashboard"
    viewBox="0 0 24 24"
    stroke-width="1.5"
    stroke="currentColor"
    fill="none"
  >
    <path
      stroke-linecap="round"
      stroke-linejoin="round"
      d="m2.25 12 8.954-8.955c.44-.439 1.152-.439 1.591 0L21.75 12M4.5 9.75v10.125c0 .621.504 1.125 1.125 1.125H9.75v-4.875c0-.621.504-1.125 1.125-1.125h2.25c.621 0 1.125.504 1.125 1.125V21h4.125c.621 0 1.125-.504 1.125-1.125V9.75M8.25 21h8.25"
    />
  </symbol>

  <symbol
    id="transaction"
    viewBox="0 0 24 24"
    stroke-width="1.5"
    stroke="currentColor"
    fill="none"
  >
    <path
      stroke-linecap="round"
      stroke-linejoin="round"
      d="M2.25 8.25h19.5M2.25 9h19.5m-16.5 5.25h6m-6 2.25h3m-3.75 3h15a2.25 2.25 0 0 0 2.25-2.25V6.75A2.25 2.25 0 0 0 19.5 4.5h-15a2.25 2.25 0 0 0-2.25 2.25v10.5A2.25 2.25 0 0 0 4.5 19.5Z"
    />
  </symbol>

  <symbol
    id="budget"
    viewBox="0 0 24 24"
    stroke-width="1.5"
    stroke="currentColor"
    fill="none"
  >
    <path
      stroke-linecap="round"
      stroke-linejoin="round"
      d="M10.5 6a7.5 7.5 0 1 0 7.5 7.5h-7.5V6Z"
    />
    <path
      stroke-linecap="round"
      stroke-linejoin="round"
      d="M13.5 10.5H21A7.5 7.5 0 0 0 13.5 3v7.5Z"
    />
  </symbol>

  <symbol
    id="pot"
    viewBox="0 0 24 24"
    stroke-width="1.5"
    stroke="currentColor"
    fill="none"
  >
    <path
      stroke-linecap="round"
      stroke-linejoin="round"
      d="M2.25 18.75a60.07 60.07 0 0 1 15.797 2.101c.727.198 1.453-.342 1.453-1.096V18.75M3.75 4.5v.75A.75.75 0 0 1 3 6h-.75m0 0v-.375c0-.621.504-1.125 1.125-1.125H20.25M2.25 6v9m18-10.5v.75c0 .414.336.75.75.75h.75m-1.5-1.5h.375c.621 0 1.125.504 1.125 1.125v9.75c0 .621-.504 1.125-1.125 1.125h-.375m1.5-1.5H21a.75.75 0 0 0-.75.75v.75m0 0H3.75m0 0h-.375a1.125 1.125 0 0 1-1.125-1.125V15m1.5 1.5v-.75A.75.75 0 0 0 3 15h-.75M15 10.5a3 3 0 1 1-6 0 3 3 0 0 1 6 0Zm3 0h.008v.008H18V10.5Zm-12 0h.008v.008H6V10.5Z"
    />
  </symbol>

  <symbol
    id="fallback"
    viewBox="0 0 24 24"
    stroke-width="1.5"
    stroke="currentColor"
    fill="none"
  >
    <path
      stroke-linecap="round"
      stroke-linejoin="round"
      d="m2.25 15.75 5.159-5.159a2.25 2.25 0 0 1 3.182 0l5.159 5.159m-1.5-1.5 1.409-1.409a2.25 2.25 0 0 1 3.182 0l2.909 2.909m-18 3.75h16.5a1.5 1.5 0 0 0 1.5-1.5V6a1.5 1.5 0 0 0-1.5-1.5H3.75A1.5 1.5 0 0 0 2.25 6v12a1.5 1.5 0 0 0 1.5 1.5Zm10.5-11.25h.008v.008h-.008V8.25Zm.375 0a.375.375 0 1 1-.75 0 .375.375 0 0 1 .75 0Z"
    />
  </symbol>
</svg>
